<?xml version="1.0" encoding="UTF-8" standalone="no"?>
<!-- Created with Inkscape (http://www.inkscape.org/) -->

<svg
   xmlns:dc="http://purl.org/dc/elements/1.1/"
   xmlns:cc="http://creativecommons.org/ns#"
   xmlns:rdf="http://www.w3.org/1999/02/22-rdf-syntax-ns#"
   xmlns:svg="http://www.w3.org/2000/svg"
   xmlns="http://www.w3.org/2000/svg"
   xmlns:sodipodi="http://sodipodi.sourceforge.net/DTD/sodipodi-0.dtd"
   xmlns:inkscape="http://www.inkscape.org/namespaces/inkscape"
   version="1.1"
   id="svg1435"
   xml:space="preserve"
   width="32"
   height="32"
   viewBox="0 0 32 32"
   sodipodi:docname="menu_training.svg"
   inkscape:version="0.92.4 (5da689c313, 2019-01-14)"><metadata
     id="metadata1441"><rdf:RDF><cc:Work
         rdf:about=""><dc:format>image/svg+xml</dc:format><dc:type
           rdf:resource="http://purl.org/dc/dcmitype/StillImage" /><dc:title /></cc:Work></rdf:RDF></metadata><defs
     id="defs1439"><clipPath
       clipPathUnits="userSpaceOnUse"
       id="clipPath1451"><path
         d="M 0,24 H 24 V 0 H 0 Z"
         id="path1449"
         inkscape:connector-curvature="0" /></clipPath><clipPath
       clipPathUnits="userSpaceOnUse"
       id="clipPath1459"><path
         d="M 2.00005,22 H 22 V 2.00005 H 2.00005 Z"
         id="path1457"
         inkscape:connector-curvature="0" /></clipPath><clipPath
       clipPathUnits="userSpaceOnUse"
       id="clipPath1475"><path
         d="M 3,21 H 21 V 3 H 3 Z"
         id="path1473"
         inkscape:connector-curvature="0" /></clipPath><clipPath
       clipPathUnits="userSpaceOnUse"
       id="clipPath1491"><path
         d="M 4,22 H 20 V 2 H 4 Z"
         id="path1489"
         inkscape:connector-curvature="0" /></clipPath><clipPath
       clipPathUnits="userSpaceOnUse"
       id="clipPath1507"><path
         d="M 2,20 H 22 V 4 H 2 Z"
         id="path1505"
         inkscape:connector-curvature="0" /></clipPath><clipPath
       clipPathUnits="userSpaceOnUse"
       id="clipPath1523"><path
         d="M 0,24 H 24 V 0 H 0 Z"
         id="path1521"
         inkscape:connector-curvature="0" /></clipPath><clipPath
       clipPathUnits="userSpaceOnUse"
       id="clipPath1533"><path
         d="M 0,48 H 48 V 0 H 0 Z"
         id="path1531"
         inkscape:connector-curvature="0" /></clipPath><clipPath
       clipPathUnits="userSpaceOnUse"
       id="clipPath1541"><path
         d="M 0,24 H 24 V 0 H 0 Z"
         id="path1539"
         inkscape:connector-curvature="0" /></clipPath><clipPath
       clipPathUnits="userSpaceOnUse"
       id="clipPath1549"><path
         d="M -2.13623e-4,24.0002 H 23.9997 V 2.74658e-4 H -2.13623e-4 Z"
         id="path1547"
         inkscape:connector-curvature="0" /></clipPath><clipPath
       clipPathUnits="userSpaceOnUse"
       id="clipPath1553"><path
         d="M -2.13623e-4,47.9998 H 47.9998 V -1.52588e-4 H -2.13623e-4 Z"
         id="path1551"
         inkscape:connector-curvature="0" /></clipPath><clipPath
       clipPathUnits="userSpaceOnUse"
       id="clipPath1557"><path
         d="M 48,48 H 0 V 0 h 48 z"
         id="path1555"
         inkscape:connector-curvature="0" /></clipPath><clipPath
       clipPathUnits="userSpaceOnUse"
       id="clipPath1765"><path
         d="M 0,24 H 24 V 0 H 0 Z"
         id="path1763"
         inkscape:connector-curvature="0" /></clipPath><clipPath
       clipPathUnits="userSpaceOnUse"
       id="clipPath1775"><path
         d="M -2.28882e-4,48.0001 H 47.9998 V 1.2207e-4 H -2.28882e-4 Z"
         id="path1773"
         inkscape:connector-curvature="0" /></clipPath><clipPath
       clipPathUnits="userSpaceOnUse"
       id="clipPath1783"><path
         d="M -2.28882e-4,48.0001 H 47.9998 V 1.2207e-4 H -2.28882e-4 Z"
         id="path1781"
         inkscape:connector-curvature="0" /></clipPath><clipPath
       clipPathUnits="userSpaceOnUse"
       id="clipPath1787"><path
         d="M 0,0 H 48 V 48 H 0 Z"
         id="path1785"
         inkscape:connector-curvature="0" /></clipPath></defs><sodipodi:namedview
     pagecolor="#ffffff"
     bordercolor="#666666"
     borderopacity="1"
     objecttolerance="10"
     gridtolerance="10"
     guidetolerance="10"
     inkscape:pageopacity="0"
     inkscape:pageshadow="2"
     inkscape:window-width="3840"
     inkscape:window-height="2107"
     id="namedview1437"
     showgrid="false"
     inkscape:zoom="22.627417"
     inkscape:cx="13.618065"
     inkscape:cy="14.728441"
     inkscape:window-x="-8"
     inkscape:window-y="-8"
     inkscape:window-maximized="1"
     inkscape:current-layer="layer1" /><g
     inkscape:groupmode="layer"
     id="layer1"
     inkscape:label="Icon"><path
       style="opacity:1;fill:#4d4d4d;fill-opacity:1;stroke:#4d4d4d;stroke-width:0.45890903;stroke-linecap:round;stroke-linejoin:round;stroke-miterlimit:4;stroke-dasharray:none;stroke-dashoffset:0;stroke-opacity:1"
       d="M 9.2526489,19.182799 20.211234,8.2242151 c 0.241727,-0.2417283 0.555078,-0.1265124 0.872664,0 1.702586,0.6782368 2.116348,1.6278043 2.569153,2.5691529 0.148185,0.308067 0.241727,0.630936 0,0.872665 L 12.694466,22.624616 c -0.241728,0.241728 -0.725918,0.308756 -0.872664,0 -0.509936,-1.072914 -1.529445,-1.827344 -2.5691531,-2.569151 -0.278286,-0.198551 -0.2417282,-0.630938 0,-0.872666 z"
       id="rect7654"
       inkscape:connector-curvature="0"
       sodipodi:nodetypes="sssssssss" /><path
       style="opacity:1;fill:#4d4d4d;fill-opacity:1;stroke:#4d4d4d;stroke-width:0.45890903;stroke-linecap:round;stroke-linejoin:round;stroke-miterlimit:4;stroke-dasharray:none;stroke-dashoffset:0;stroke-opacity:1"
       d="m 21.801242,6.5679149 1.033519,-1.0335191 c 0.269817,-0.2698174 0.721212,-0.2528567 1.012097,0.038028 l 2.391692,2.3916923 c 0.290884,0.2908846 0.307846,0.7422792 0.03802,1.0120968 l -1.033519,1.0335181 c -0.269818,0.269818 -0.90894,0.360202 -1.012097,-0.03802 C 23.937968,8.8406343 23.111493,8.1236367 21.83927,7.5800119 21.460984,7.41837 21.531424,6.8377321 21.801242,6.5679149 Z"
       id="rect7658"
       inkscape:connector-curvature="0"
       sodipodi:nodetypes="sssssssss" /><path
       style="fill:#4d4d4d;fill-opacity:1;stroke:#4d4d4d;stroke-width:1.14727259px;stroke-linecap:butt;stroke-linejoin:round;stroke-opacity:1"
       d="m 8.0519994,20.989039 c 1.7925995,0.698194 2.2387576,1.765316 2.7886516,2.788653 l -4.0469204,1.075936 z"
       id="path7660"
       inkscape:connector-curvature="0"
       sodipodi:nodetypes="cccc" /></g></svg>